<?xml version="1.0" encoding="UTF-8"?><svg id="a" xmlns="http://www.w3.org/2000/svg" viewBox="0 0 860 300.46"><defs><style>.b{fill:#fff;}.c{fill:#ff9a1b;}</style></defs><path class="b" d="m326.18,148.37c2.68,51.06-54.76,126.16-97.24,126.16-18.88,0-37.67-14.59-38.95-39.05-1.93-36.91,38.48-76.39,74.89-85.83,4.65-1.29,9.35-1.72,11.07-1.72,3.86,0,5.26,2.15,5.37,4.3.13,2.57-1.95,3.86-6.94,6.87-28.78,15.88-55.01,55.79-53.52,84.11.63,12.02,5.69,18.45,15.13,18.45,28.75,0,69.66-62.66,67.21-109.43-.94-18.03-8.1-23.6-17.11-23.6s-15.61,5.15-20.08,9.87c-.86,0-2.21-1.29-2.32-3.43-.38-7.29,13.08-20.6,31.53-20.6s29.81,12.02,30.96,33.9Z"/><path class="b" d="m460.9,148.37c2.68,51.06-54.75,126.16-97.23,126.16-18.88,0-37.67-14.59-38.96-39.05-1.93-36.91,38.48-76.39,74.89-85.83,4.65-1.29,9.35-1.72,11.07-1.72,3.86,0,5.26,2.15,5.37,4.3.13,2.57-1.94,3.86-6.93,6.87-28.78,15.88-55.01,55.79-53.53,84.11.63,12.02,5.69,18.45,15.13,18.45,28.75,0,69.67-62.66,67.22-109.43-.94-18.03-8.1-23.6-17.12-23.6s-15.61,5.15-20.08,9.87c-.86,0-2.22-1.29-2.33-3.43-.38-7.29,13.08-20.6,31.53-20.6s29.81,12.02,30.96,33.9Z"/><path class="b" d="m665.5,38.3c-.06,0-.12,0-.17,0-23,.13-48.05,41.15-71.41,101.78-18.8-34.28-130.94,19.76-133.4,96-.79,24.48,15.07,42.38,39.9,40.4,67.79-5.4,97.75-91.98,101.36-111.93,6.94-38.27,59.81-101.62,77.3-111.44,3.32-1.86-2.26-14.73-13.58-14.83Zm-158.02,147.76c18.9-23.06,50.72-40.12,68.19-31.5,5.99,2.96,4.14,12.79,3.1,17.82-5.37,26.04-24.2,56.74-46.55,71.68-36.64,24.48-67.43-5.93-24.74-58Z"/><path class="b" d="m711.63,103.74c8.22,1.29,21.57-14.17,23.11-25.75,1.31-7.73-5.62-17.17-12.98-18.45-8.67-1.72-20.8,12.44-22.64,26.6-1.2,9.87,5.57,16.31,12.51,17.6Z"/><path class="b" d="m859.99,200.29c-.07-1.29-.54-2.14-1.83-2.14s-2.57,0-5.37,3.86c-14.1,17.59-54.45,58.36-91.35,58.36-14.59,0-21.34-6.01-22.02-18.88-.43-8.16,1.22-17.59,4.56-27.46,50.06-11.16,87.49-42.06,86.38-63.08-.63-12.02-8.38-20.6-28.98-20.6-35.71,0-88.76,49.49-92.36,94.42-13.04,15.82-30.63,32.6-46.85,32.6-8.58,0-12.69-4.71-13.21-14.59-1.01-19.32,8.91-42.91,40.54-86.25,4.81-6.44,6.87-8.16,6.73-10.73-.22-4.29-10.14-13.3-17-13.3-14.88,0-37.48,36.94-48.89,68.89-10.66,19.47-24.05,36.09-47.61,49.58-4.4,2.52-4.75,9.76,6.37,4.8,14.82-6.62,25.39-14.54,34.19-24.4-.08,1.45-.09,2.83-.02,4.12,1.33,25.31,14.8,36.9,30.68,36.9,19.59,0,39.86-17.39,55.3-35.73,2.85,25.49,19.08,37.88,44.34,37.88,42.06,0,87.42-43.34,103.73-67.8,2.39-3.43,2.75-4.72,2.66-6.44Zm-51.64-60.08c3.43,0,5.67,1.72,5.89,6.01.67,12.87-28.36,48.49-66.84,59.22,13.76-32.19,41.66-64.8,60.95-65.23Z"/><path class="b" d="m182.57,53.72c-.27-5.08-11.89-16.93-19.51-16.93-12.27,0-37.54,34.7-60.16,87.61-4.91,11.42-9.79,23.27-13.82,35.12-7.48,2.54-14.52,5.51-21.56,8.46-22.3,10.59-33.79,25.39-32.24,46.98.62,3.81,2.38,5.08,3.21,4.66,2.96,0,5.52-7.62,16.91-16.51,4.88-3.81,13.52-8.46,23.84-13.54-12.71,40.21-20.16,75.76-19.27,92.69.64,12.27,12.38,18.2,16.62,18.2,5.5,0,3.65-11.01,9.63-34.29,8.09-31.31,18.28-63.06,30.25-93.11,21.03-7.65,60.2-14.78,81.87-16.7,6.4-.57,7.41-9.44,1.29-11.83-2.43-.95-5.74-1.43-10.09-1.3-13.52.43-48.65,3.16-62.47,6.13,13.64-30.47,29.91-59.25,48.09-83.79,5.15-6.77,7.58-8.89,7.42-11.85Z"/><path class="b" d="m349.01,14.58c-3.81-.28-20.7,15.39-51.21,13.14C245.69,23.88,218.51,4.97,158.77.57,90.23-4.47,22.03,24.26,5.15,68.03c-12.45,32.28.62,60.79,8.27,66.44,2.45,1.81,4.33,2.16,5.29.82,1.36-1.89-4.81-19.09,6.75-45.58C37.95,61.08,95.74,9.04,150.44,13.07c65.25,4.8,84.85,40.91,139.93,44.97,38.13,2.81,61.24-25.93,61.53-39.44.05-2.54-1.19-3.9-2.89-4.02Z"/><ellipse class="c" cx="540.02" cy="187.87" rx="20.38" ry="13.93" transform="translate(25.32 436.88) rotate(-45)"/></svg>